<?xml version="1.0" standalone="no"?><!DOCTYPE svg PUBLIC "-//W3C//DTD SVG 1.1//EN" "http://www.w3.org/Graphics/SVG/1.1/DTD/svg11.dtd"><svg t="1728113155921" class="icon" viewBox="0 0 1123 1024" version="1.1" xmlns="http://www.w3.org/2000/svg" p-id="1251" xmlns:xlink="http://www.w3.org/1999/xlink" width="219.3359375" height="200"><path d="M661.172425 325.496868a3227.418539 3227.418539 0 0 1 9.554962-105.905256c97.168658-29.425745 194.337316-37.503227 291.501551-24.232446 61.125217 9.240887 115.185955 74.431387 120.224429 135.459285a3160.516109 3160.516109 0 0 1 0 453.511245c-4.936731 60.063555-58.298541 125.798156-116.185688 134.893065-98.513431 14.058181-197.026861 6.162066-295.544715-23.666226a3218.031674 3218.031674 0 0 1-9.554962-105.896409" fill="#588AC2" p-id="1252"></path><path d="M738.027941 329.606387C711.402331 151.826581 554.063952 27.006039 386.405329 26.320382c-167.645352 0.685657-324.992578 125.506199-351.618189 303.286005-10.488341 81.575491 13.93432 160.908219 67.490769 223.665742l-26.430972 279.699403c-8.687938 82.199217 74.347338 158.479666 185.437046 162.447629a3452.482137 3452.482137 0 0 0 246.721512 0.119437c111.076437-3.844103 194.186914-80.040504 185.578601-162.248568-8.61716-92.231928-17.234321-184.459432-25.860329-276.691359 55.542642-63.248542 80.987153-143.987973 70.304174-226.992284z m-351.618188-197.380749c118.915045 0.265416 225.302472 88.843455 237.445236 209.426194 12.191424 120.255393-94.169462 229.659712-237.445236 229.575663-143.275775 0.092895-249.627813-109.324694-237.440813-229.575663 12.142765-120.582739 118.530192-209.165202 237.440813-209.426194z" fill="#588AC2" p-id="1253"></path><path d="M295.646458 363.336288a95.018792 90.763295 90 1 0 181.526589 0 95.018792 90.763295 90 1 0-181.526589 0Z" fill="#588AC2" p-id="1254"></path></svg>