<?xml version="1.0" standalone="no"?><!DOCTYPE svg PUBLIC "-//W3C//DTD SVG 1.1//EN" "http://www.w3.org/Graphics/SVG/1.1/DTD/svg11.dtd"><svg t="1728117731839" class="icon" viewBox="0 0 1024 1024" version="1.1" xmlns="http://www.w3.org/2000/svg" p-id="899" xmlns:xlink="http://www.w3.org/1999/xlink" width="200" height="200"><path d="M384 988.16h-10.24c-81.92-25.6-158.72-71.68-215.04-133.12-15.36-15.36-15.36-40.96 0-56.32 15.36-15.36 20.48-40.96 20.48-61.44 0-51.2-40.96-92.16-92.16-92.16h-10.24c-20.48 0-40.96-10.24-46.08-35.84-5.12-30.72-10.24-66.56-10.24-102.4 0-51.2 5.12-102.4 20.48-148.48 5.12-15.36 20.48-30.72 40.96-30.72 56.32 0 97.28-40.96 97.28-92.16 0-15.36-5.12-30.72-10.24-40.96-10.24-15.36-5.12-35.84 10.24-51.2C235.52 87.04 307.2 51.2 384 30.72c20.48-5.12 40.96 5.12 51.2 20.48 15.36 30.72 46.08 51.2 81.92 51.2s66.56-20.48 81.92-51.2c10.24-15.36 30.72-25.6 51.2-20.48 76.8 20.48 148.48 61.44 204.8 112.64 15.36 10.24 15.36 30.72 10.24 51.2-5.12 15.36-10.24 25.6-10.24 40.96 0 51.2 40.96 92.16 92.16 92.16 20.48 0 35.84 10.24 40.96 30.72 15.36 46.08 20.48 97.28 20.48 148.48 0 35.84-5.12 66.56-10.24 102.4-5.12 20.48-25.6 35.84-46.08 35.84h-10.24c-51.2 0-92.16 40.96-92.16 92.16 0 20.48 10.24 46.08 20.48 61.44 15.36 15.36 15.36 40.96 0 56.32-61.44 61.44-133.12 107.52-215.04 133.12-20.48 5.12-46.08-5.12-51.2-25.6-10.24-40.96-46.08-66.56-92.16-66.56s-76.8 25.6-92.16 66.56c-5.12 15.36-20.48 25.6-35.84 25.6z m-143.36-163.84c35.84 30.72 76.8 56.32 122.88 76.8 30.72-51.2 87.04-87.04 153.6-87.04s117.76 30.72 153.6 87.04c46.08-15.36 87.04-40.96 122.88-76.8-15.36-25.6-20.48-51.2-20.48-81.92 0-92.16 66.56-163.84 153.6-179.2 0-15.36 5.12-35.84 5.12-51.2 0-30.72-5.12-66.56-10.24-97.28-81.92-15.36-148.48-87.04-148.48-174.08 0-15.36 0-30.72 5.12-46.08-35.84-30.72-76.8-51.2-122.88-66.56-35.84 40.96-81.92 66.56-138.24 66.56s-112.64-25.6-143.36-71.68c-46.08 20.48-87.04 40.96-122.88 71.68 5.12 15.36 10.24 30.72 10.24 46.08 0 87.04-61.44 158.72-148.48 174.08C102.4 445.44 102.4 481.28 102.4 512c0 15.36 0 35.84 5.12 51.2 87.04 10.24 153.6 87.04 153.6 179.2 0 25.6-10.24 56.32-20.48 81.92z" p-id="900"></path><path d="M512 711.68c-112.64 0-199.68-92.16-199.68-199.68S399.36 312.32 512 312.32s199.68 92.16 199.68 199.68-87.04 199.68-199.68 199.68z m0-317.44c-66.56 0-117.76 51.2-117.76 117.76 0 66.56 51.2 117.76 117.76 117.76s117.76-51.2 117.76-117.76c0-61.44-51.2-117.76-117.76-117.76z" p-id="901"></path></svg>